<svg fill="#953CAD" viewBox="0 0 256 256" xmlns="http://www.w3.org/2000/svg">
<rect width="256" height="256" rx="60"/>
<path d="m195.44 100.67v53.895h-6.737v-13.474h-13.473v-26.947h13.473v6.737h6.737zm13.474 20.211h-13.474v13.473h13.474v-13.473z" fill="#fff"/>
<path d="m122 33c35.143 0 65.827 19.086 82.261 47.456l-41.509 23.535c-8.146-13.793-23.081-23.102-40.213-23.294-26.665-3e-3 -47.846 21.176-47.846 47.302 0 8.544 2.2778 16.553 6.239 23.47 8.1541 14.235 23.482 23.837 41.068 23.837 17.692 0 33.108-9.724 41.221-24.111l41.089 24.263c-16.254 28.13-46.517 47.157-81.252 47.536-36.313 6e-3 -67.084-19.198-83.477-47.718-8.0029-13.923-12.582-30.064-12.582-47.277 0-52.466 42.532-94.999 95.001-94.999z" fill="#fff"/>
</svg>
